P3
# A diagonal black line over a 5x5 white image
5 5
255
0 0 0        255 255 255  255 255 255  255 255 255  255 255 255
255 255 255  0 0 0        255 255 255  255 255 255  255 255 255
255 255 255  255 255 255  0 0 0        255 255 255  255 255 255
255 255 255  255 255 255  255 255 255  0 0 0        255 255 255
255 255 255  255 255 255  255 255 255  255 255 255  0 0 0